<svg id="Layer_1" data-name="Layer 1" xmlns="http://www.w3.org/2000/svg" viewBox="0 0 582 588"><defs><style>.cls-1{fill:none;stroke:#c7dde9;stroke-linecap:round;stroke-miterlimit:10;stroke-width:10px;stroke-dasharray:0 31.3 0 0 0 0;}</style></defs><title>circle-dotted</title><line class="cls-1" x1="5" y1="5" x2="5" y2="583"/><line class="cls-1" x1="31" y1="5" x2="31" y2="583"/><line class="cls-1" x1="57" y1="5" x2="57" y2="583"/><line class="cls-1" x1="83" y1="5" x2="83" y2="583"/><line class="cls-1" x1="109" y1="5" x2="109" y2="583"/><line class="cls-1" x1="135" y1="5" x2="135" y2="583"/><line class="cls-1" x1="161" y1="5" x2="161" y2="583"/><line class="cls-1" x1="187" y1="5" x2="187" y2="583"/><line class="cls-1" x1="213" y1="5" x2="213" y2="583"/><line class="cls-1" x1="239" y1="5" x2="239" y2="583"/><line class="cls-1" x1="265" y1="5" x2="265" y2="583"/><line class="cls-1" x1="291" y1="5" x2="291" y2="583"/><line class="cls-1" x1="317" y1="5" x2="317" y2="583"/><line class="cls-1" x1="343" y1="5" x2="343" y2="583"/><line class="cls-1" x1="369" y1="5" x2="369" y2="583"/><line class="cls-1" x1="395" y1="5" x2="395" y2="583"/><line class="cls-1" x1="421" y1="5" x2="421" y2="583"/><line class="cls-1" x1="447" y1="5" x2="447" y2="583"/><line class="cls-1" x1="473" y1="5" x2="473" y2="583"/><line class="cls-1" x1="499" y1="5" x2="499" y2="583"/><line class="cls-1" x1="525" y1="5" x2="525" y2="583"/><line class="cls-1" x1="551" y1="5" x2="551" y2="583"/><line class="cls-1" x1="577" y1="5" x2="577" y2="583"/></svg>