<?xml version="1.0" encoding="utf-8"?>
<!-- Generator: Adobe Illustrator 24.0.1, SVG Export Plug-In . SVG Version: 6.00 Build 0)  -->
<svg version="1.1" id="Capa_1" xmlns="http://www.w3.org/2000/svg" xmlns:xlink="http://www.w3.org/1999/xlink" x="0px" y="0px"
	 viewBox="0 0 512 512" style="enable-background:new 0 0 512 512;" xml:space="preserve">
<style type="text/css">
	.st0{fill:#008737;}
</style>
<g>
	<g>
		<path class="st0" d="M73.1,365.7C32.8,365.7,0,398.5,0,438.9S32.8,512,73.1,512s73.1-32.8,73.1-73.1S113.5,365.7,73.1,365.7z
			 M73.1,493.7c-30.3,0-54.9-24.6-54.9-54.9c0-30.3,24.6-54.9,54.9-54.9s54.9,24.6,54.9,54.9C128,469.1,103.4,493.7,73.1,493.7z"/>
		<path class="st0" d="M256,365.7c-40.3,0-73.1,32.8-73.1,73.1S215.7,512,256,512s73.1-32.8,73.1-73.1S296.3,365.7,256,365.7z
			 M256,493.7c-30.3,0-54.9-24.6-54.9-54.9c0-30.3,24.6-54.9,54.9-54.9s54.9,24.6,54.9,54.9C310.9,469.1,286.3,493.7,256,493.7z"/>
		<path class="st0" d="M438.9,365.7c-40.3,0-73.1,32.8-73.1,73.1s32.8,73.1,73.1,73.1s73.1-32.8,73.1-73.1S479.2,365.7,438.9,365.7z
			 M438.9,493.7c-30.3,0-54.9-24.6-54.9-54.9c0-30.3,24.6-54.9,54.9-54.9c30.3,0,54.9,24.6,54.9,54.9
			C493.7,469.1,469.1,493.7,438.9,493.7z"/>
		<path class="st0" d="M73.1,182.9C32.8,182.9,0,215.7,0,256s32.8,73.1,73.1,73.1s73.1-32.8,73.1-73.1S113.5,182.9,73.1,182.9z
			 M73.1,310.9c-30.3,0-54.9-24.6-54.9-54.9s24.6-54.9,54.9-54.9S128,225.7,128,256S103.4,310.9,73.1,310.9z"/>
		<path class="st0" d="M256,182.9c-40.3,0-73.1,32.8-73.1,73.1s32.8,73.1,73.1,73.1s73.1-32.8,73.1-73.1S296.3,182.9,256,182.9z
			 M256,310.9c-30.3,0-54.9-24.6-54.9-54.9s24.6-54.9,54.9-54.9s54.9,24.6,54.9,54.9S286.3,310.9,256,310.9z"/>
		<path class="st0" d="M438.9,182.9c-40.3,0-73.1,32.8-73.1,73.1s32.8,73.1,73.1,73.1S512,296.3,512,256S479.2,182.9,438.9,182.9z
			 M438.9,310.9c-30.3,0-54.9-24.6-54.9-54.9s24.6-54.9,54.9-54.9c30.3,0,54.9,24.6,54.9,54.9S469.1,310.9,438.9,310.9z"/>
		<path class="st0" d="M73.1,0C32.8,0,0,32.8,0,73.1s32.8,73.1,73.1,73.1s73.1-32.8,73.1-73.1S113.5,0,73.1,0z M73.1,128
			c-30.3,0-54.9-24.6-54.9-54.9s24.6-54.9,54.9-54.9S128,42.9,128,73.1S103.4,128,73.1,128z"/>
		<path class="st0" d="M256,0c-40.3,0-73.1,32.8-73.1,73.1s32.8,73.1,73.1,73.1s73.1-32.8,73.1-73.1S296.3,0,256,0z M256,128
			c-30.3,0-54.9-24.6-54.9-54.9s24.6-54.9,54.9-54.9s54.9,24.6,54.9,54.9S286.3,128,256,128z"/>
		<path class="st0" d="M438.9,146.3c40.3,0,73.1-32.8,73.1-73.1S479.2,0,438.9,0s-73.1,32.8-73.1,73.1S398.5,146.3,438.9,146.3z
			 M438.9,18.3c30.3,0,54.9,24.6,54.9,54.9S469.1,128,438.9,128c-30.3,0-54.9-24.6-54.9-54.9S408.6,18.3,438.9,18.3z"/>
	</g>
</g>
</svg>
