<?xml version="1.0"?>
<svg xmlns="http://www.w3.org/2000/svg" xmlns:xlink="http://www.w3.org/1999/xlink" version="1.1" id="Capa_1" x="0px" y="0px" viewBox="0 0 508.1 508.1" style="enable-background:new 0 0 508.1 508.1;" xml:space="preserve" width="512px" height="512px"><g><g>
	<g>
		<path d="M450.6,114.75H344.1v-41c0-13.6-11-24.6-24.6-24.6h-131c-13.6,0-24.6,11-24.6,24.6v41H57.4c-31.7,0-57.4,25.7-57.4,57.4    v229.4c0,31.6,25.7,57.4,57.4,57.4h393.3c31.6,0,57.4-25.7,57.4-57.4v-229.4C508,140.45,482.3,114.75,450.6,114.75z M180.3,73.75    c0-4.5,3.7-8.2,8.2-8.2h131.1c4.5,0,8.2,3.7,8.2,8.2v41H180.3V73.75z M491.7,401.55c-0.1,22.6-18.5,41-41.1,41H57.4    c-22.6,0-41-18.4-41-41v-147.5h188.5v24.6h98.3v-24.6h188.5V401.55z M221.3,262.25v-32.8h65.5v32.8H221.3z M491.7,237.65H303.2    v-24.6h-98.3v24.6H16.4v-65.5c0-22.6,18.4-41,41-41h106.5h180.3h106.5c22.6,0,41,18.4,41,41V237.65z" data-original="#000000" class="active-path" data-old_color="#000000" fill="#FFFFFF"/>
	</g>
</g><g>
	<g>
		<rect x="172.1" y="376.95" width="163.9" height="16.4" data-original="#000000" class="active-path" data-old_color="#000000" fill="#FFFFFF"/>
	</g>
</g></g> </svg>
