<?xml version="1.0" encoding="utf-8"?>
<!-- Generator: Adobe Illustrator 24.0.1, SVG Export Plug-In . SVG Version: 6.00 Build 0)  -->
<svg version="1.1" id="Capa_1" xmlns="http://www.w3.org/2000/svg" xmlns:xlink="http://www.w3.org/1999/xlink" x="0px" y="0px"
	 viewBox="0 0 512 512" style="enable-background:new 0 0 512 512;" xml:space="preserve">
<style type="text/css">
	.st0{fill:#008737;}
</style>
<g>
	<g>
		<g>
			<g>
				<path class="st0" d="M59.7,477.8c14.1,0,25.6-11.5,25.6-25.6c0-14.1-11.5-25.6-25.6-25.6s-25.6,11.5-25.6,25.6
					C34.1,466.4,45.6,477.8,59.7,477.8z M59.7,443.7c4.7,0,8.5,3.8,8.5,8.5c0,4.7-3.8,8.5-8.5,8.5s-8.5-3.8-8.5-8.5
					C51.2,447.5,55,443.7,59.7,443.7z"/>
				<path class="st0" d="M110.9,460.8h85.3c4.7,0,8.5-3.8,8.5-8.5c0-4.7-3.8-8.5-8.5-8.5h-85.3c-4.7,0-8.5,3.8-8.5,8.5
					C102.4,456.9,106.2,460.8,110.9,460.8z"/>
				<path class="st0" d="M383.9,477.8c4.7,0,8.5-3.8,8.5-8.5v-34.1c0-4.7-3.8-8.5-8.5-8.5s-8.5,3.8-8.5,8.5v34.1
					C375.4,474,379.2,477.8,383.9,477.8z"/>
				<path class="st0" d="M349.8,477.8c4.7,0,8.5-3.8,8.5-8.5v-34.1c0-4.7-3.8-8.5-8.5-8.5s-8.5,3.8-8.5,8.5v34.1
					C341.3,474,345.1,477.8,349.8,477.8z"/>
				<path class="st0" d="M315.7,477.8c4.7,0,8.5-3.8,8.5-8.5v-34.1c0-4.7-3.8-8.5-8.5-8.5s-8.5,3.8-8.5,8.5v34.1
					C307.1,474,311,477.8,315.7,477.8z"/>
				<path class="st0" d="M281.6,477.8c4.7,0,8.5-3.8,8.5-8.5v-34.1c0-4.7-3.8-8.5-8.5-8.5s-8.5,3.8-8.5,8.5v34.1
					C273,474,276.8,477.8,281.6,477.8z"/>
				<path class="st0" d="M247.4,477.8c4.7,0,8.5-3.8,8.5-8.5v-34.1c0-4.7-3.8-8.5-8.5-8.5c-4.7,0-8.5,3.8-8.5,8.5v34.1
					C238.9,474,242.7,477.8,247.4,477.8z"/>
				<path class="st0" d="M460.6,81.2c-2-40.7-32.6-74.4-72.9-80.1c-1.2-0.6-2.4-1-3.7-1h-8.5c-18.4,0.1-36.3,6-51.1,17.1H42.7
					c-4.4,0-8.1,3.3-8.5,7.8L0,400.3v0.8v102.4c0,4.7,3.8,8.5,8.5,8.5h409.5c4.7,0,8.5-3.8,8.5-8.5V401c0-0.1,0-0.6,0-0.7
					l-14.8-169.9h23.4c42.4,0,76.8-34.3,76.9-76.7C512,121.1,491.4,92,460.6,81.2z M50.4,34.2h256.7c-0.2,0.3-0.4,0.6-0.6,0.9
					c-1.3,1.8-2.6,3.6-3.7,5.5c-0.4,0.7-0.9,1.4-1.2,2.1c-0.9,1.6-1.8,3.2-2.6,4.8c-0.4,0.8-0.8,1.6-1.1,2.3
					c-0.8,1.7-1.5,3.4-2.1,5.1c-0.3,0.7-0.6,1.4-0.9,2.1c-0.9,2.5-1.6,4.9-2.3,7.5c-9.1-3.2-18.6-4.8-28.2-4.8
					c-47.1,0-85.3,38.2-85.3,85.3s38.2,85.3,85.3,85.3h130.1l14.1,162.1H17.9L50.4,34.2z M409.5,494.9H17.1v-85.3h392.5V494.9z
					 M435.1,213.3L435.1,213.3H264.5c-37.7,0-68.3-30.6-68.3-68.3s30.6-68.3,68.3-68.3c10.7,0,21.2,2.5,30.8,7.3
					c4.2,2.1,9.3,0.5,11.5-3.7c0.5-0.9,0.8-1.9,0.9-3c0.2-2.1,0.6-4.2,1.1-6.3c3.2-15.3,11.6-29.1,23.8-39
					c12.1-9.8,27.3-15.2,42.9-15.2c2.5,0,4.9,0.1,7.4,0.4h0.3c34.5,3.8,60.7,33.1,60.6,67.8v1.1c-0.5,4.3,2.2,8.2,6.4,9.3
					c32,8.2,51.2,40.7,43,72.7C486.3,194.9,462.4,213.4,435.1,213.3z"/>
			</g>
		</g>
	</g>
</g>
</svg>
