<?xml version="1.0" encoding="utf-8"?>
<!-- Generator: Adobe Illustrator 24.0.1, SVG Export Plug-In . SVG Version: 6.00 Build 0)  -->
<svg version="1.1" id="Capa_1" xmlns="http://www.w3.org/2000/svg" xmlns:xlink="http://www.w3.org/1999/xlink" x="0px" y="0px"
	 viewBox="0 0 512 512" style="enable-background:new 0 0 512 512;" xml:space="preserve">
<style type="text/css">
	.st0{fill:#008737;}
</style>
<g>
	<g>
		<g>
			<g>
				<path class="st0" d="M256.4,110.4c-72.5,0-131.7,59.2-131.7,131.7c0,37.9,16.6,74.4,44.5,99c20.8,20.8,18.9,65.4,18.5,65.8
					c0,2.4,0.5,4.3,2.4,6.2c1.4,1.4,3.8,2.4,5.7,2.4h120.8c2.4,0,4.3-0.9,5.7-2.4c1.4-1.4,2.4-3.8,2.4-6.2c0-0.5-2.4-45,18.5-65.8
					c0.5-0.5,0.9-0.9,1.4-1.4c27.5-25.1,43.6-60.6,43.6-97.6C388.1,169.6,328.9,110.4,256.4,110.4z M332.2,328.7
					c-0.5,0.5-1.4,1.4-1.4,1.9c-18.5,19.9-21.8,52.6-22.3,68.2H203.8c-0.5-15.6-3.8-49.7-23.7-70.1c-25.1-21.8-39.8-53.5-39.8-87.1
					c0-63.9,51.6-115.6,115.6-115.6s115.6,51.6,115.6,115.6C371.5,275.2,357.3,306.9,332.2,328.7z"/>
				<path class="st0" d="M255.9,144c-4.3,0-8.1,3.8-8.1,8.1s3.8,8.1,8.1,8.1c47.8,0,86.2,38.8,86.2,86.2c0,4.3,3.8,8.1,8.1,8.1
					c4.3,0,8.1-3.8,8.1-8.1C358.7,189.9,312.8,144,255.9,144z"/>
				<path class="st0" d="M308.5,424.4H203.3c-10.9,0-19.9,9-19.9,19.9c0,10.9,9,19.9,19.9,19.9H308c11.4-0.5,20.4-9,20.4-19.9
					C328.4,433.4,319.4,424.4,308.5,424.4z M308.5,447.6H203.3c-1.9,0-3.8-1.4-3.8-3.8s1.4-3.8,3.8-3.8H308c1.9,0,3.8,1.4,3.8,3.8
					S310.4,447.6,308.5,447.6z"/>
				<path class="st0" d="M292.9,472.2H219c-10.9,0-19.9,9-19.9,19.9c0,10.9,9,19.9,19.9,19.9h73.9c10.9,0,19.9-9,19.9-19.9
					C312.8,480.7,303.8,472.2,292.9,472.2z M292.9,495.4H219c-1.9,0-3.8-1.4-3.8-3.8c0-2.4,1.4-3.8,3.8-3.8h73.9
					c1.9,0,3.8,1.4,3.8,3.8C296.6,494,294.8,495.4,292.9,495.4z"/>
				<path class="st0" d="M255.9,71c4.7,0,8.1-3.8,8.1-8.1V8.1c0-4.3-3.8-8.1-8.1-8.1s-8.1,3.8-8.1,8.1V63
					C247.9,67.3,251.7,71,255.9,71z"/>
				<path class="st0" d="M390,40.7c-3.8-2.8-8.5-1.4-10.9,1.9l-30.3,45.5c-2.8,3.8-1.9,9,1.9,11.4c1.4,0.9,2.8,1.4,4.3,1.4
					c2.8,0,5.2-1.4,6.6-3.8l30.3-45.5C394.7,48.3,393.7,43.1,390,40.7z"/>
				<path class="st0" d="M159.8,99c1.4,0,2.8-0.5,4.3-1.4c3.8-2.4,4.7-7.6,2.4-11.4L137,40.3c-2.4-3.8-7.6-4.7-11.4-2.4
					c-3.8,2.4-4.7,7.6-2.4,11.4l29.4,45.9C154.6,98,156.9,99,159.8,99z"/>
				<path class="st0" d="M102.5,149.2l-47.8-26c-3.8-1.9-9-0.5-10.9,3.3c-2.4,3.8-0.9,9,3.3,10.9l47.8,26c1.4,0.5,2.4,0.9,3.8,0.9
					c2.8,0,5.7-1.4,7.1-4.3C107.7,156.3,106.2,151.1,102.5,149.2z"/>
				<path class="st0" d="M468.6,126.5c-1.9-3.8-7.1-5.2-10.9-3.3l-48.3,26c-3.8,1.9-5.2,7.1-3.3,10.9c1.4,2.8,4.3,4.3,7.1,4.3
					c1.4,0,2.8-0.5,3.8-0.9l48.3-26C469.1,135.5,470.5,130.2,468.6,126.5z"/>
			</g>
		</g>
	</g>
</g>
</svg>
